<mxfile host="Electron" agent="Mozilla/5.0 (Windows NT 10.0; Win64; x64) AppleWebKit/537.36 (KHTML, like Gecko) draw.io/27.0.9 Chrome/134.0.6998.205 Electron/35.4.0 Safari/537.36" version="27.0.9">
  <diagram name="Página-1" id="3IcqcerdGmXRIgNd1BJl">
    <mxGraphModel dx="1728" dy="630" grid="1" gridSize="10" guides="1" tooltips="1" connect="1" arrows="1" fold="1" page="1" pageScale="1" pageWidth="827" pageHeight="1169" math="0" shadow="0">
      <root>
        <mxCell id="0" />
        <mxCell id="1" parent="0" />
        <mxCell id="2cSW-Dpe2s8EiaTepQzi-1" value="&lt;div style=&quot;line-height: 100%;&quot;&gt;&lt;div&gt;&lt;font style=&quot;font-size: 10px; line-height: 100%;&quot;&gt;Ejercicio 39: Proyectos de una ONG&lt;/font&gt;&lt;/div&gt;&lt;div&gt;&lt;font style=&quot;font-size: 10px; line-height: 100%;&quot;&gt;Una ONG desea elaborar una base de datos para llevar el seguimiento de todos sus proyectos. Tiene diversas&lt;/font&gt;&lt;/div&gt;&lt;div&gt;&lt;font style=&quot;font-size: 10px; line-height: 100%;&quot;&gt;sedes en varios países que se encargan de gestionar y coordinar los proyectos de ese país, cada uno de los&lt;/font&gt;&lt;/div&gt;&lt;div&gt;&lt;font style=&quot;font-size: 10px; line-height: 100%;&quot;&gt;cuales puede afectar a una o varias poblaciones.&lt;/font&gt;&lt;/div&gt;&lt;div&gt;&lt;font style=&quot;font-size: 10px; line-height: 100%; color: rgb(0, 204, 0);&quot;&gt;Sobre las sedes se desea mantener un identificador, la ciudad y país en el que se encuentra, junto con su&lt;/font&gt;&lt;/div&gt;&lt;div&gt;&lt;font style=&quot;font-size: 10px; line-height: 100%;&quot;&gt;&lt;font style=&quot;color: rgb(0, 204, 0);&quot;&gt;dirección, un teléfono de contacto y el nombre del director.&lt;/font&gt; &lt;font style=&quot;color: rgb(102, 255, 102);&quot;&gt;Cada sede gestiona un conjunto de proyectos, con&lt;/font&gt;&lt;/font&gt;&lt;/div&gt;&lt;div&gt;&lt;font style=&quot;font-size: 10px; line-height: 100%;&quot;&gt;&lt;font style=&quot;color: rgb(102, 255, 102);&quot;&gt;un código, un título, fechas de inicio y finalización, el presupuesto asignado y el nombre del responsable&lt;/font&gt;. &lt;font style=&quot;color: rgb(102, 255, 102);&quot;&gt;Un&lt;/font&gt;&lt;/font&gt;&lt;/div&gt;&lt;div&gt;&lt;font style=&quot;font-size: 10px; line-height: 100%; color: rgb(102, 255, 102);&quot;&gt;proyecto solo podrá ser gestionado por una única sede, aunque una sede puede tener gestionando varios&lt;/font&gt;&lt;/div&gt;&lt;div&gt;&lt;font style=&quot;font-size: 10px; line-height: 100%; color: rgb(102, 255, 102);&quot;&gt;proyectos.&lt;/font&gt;&lt;/div&gt;&lt;div&gt;&lt;font style=&quot;font-size: 10px; line-height: 100%; color: rgb(0, 204, 0);&quot;&gt;De cada proyecto es necesario conocer qué actuaciones se realizan en cada población, almacenando el nombre,&lt;/font&gt;&lt;/div&gt;&lt;div&gt;&lt;font style=&quot;font-size: 10px; line-height: 100%;&quot;&gt;&lt;font style=&quot;color: rgb(0, 204, 0);&quot;&gt;país y número de habitantes. El sistema deberá proveer un identificador único a cada población.&lt;/font&gt; &lt;font style=&quot;color: rgb(102, 255, 102);&quot;&gt;Además, se&lt;/font&gt;&lt;/font&gt;&lt;/div&gt;&lt;div&gt;&lt;font style=&quot;font-size: 10px; line-height: 100%; color: rgb(102, 255, 102);&quot;&gt;desea conocer la inversión del proyecto que corresponde a la población y una pequeña descripción de la&lt;/font&gt;&lt;/div&gt;&lt;div&gt;&lt;font style=&quot;font-size: 10px; line-height: 100%; color: rgb(102, 255, 102);&quot;&gt;actuación.&lt;/font&gt;&lt;/div&gt;&lt;div&gt;&lt;font style=&quot;font-size: 10px; line-height: 100%;&quot;&gt;Los proyectos pueden actuar en diferentes poblaciones, pudiendo estas ser beneficiarias de diferentes&lt;/font&gt;&lt;/div&gt;&lt;div&gt;&lt;font style=&quot;font-size: 10px; line-height: 100%;&quot;&gt;proyectos al mismo tiempo.&lt;/font&gt;&lt;/div&gt;&lt;/div&gt;" style="text;html=1;align=left;verticalAlign=middle;whiteSpace=wrap;rounded=0;" parent="1" vertex="1">
          <mxGeometry x="-100" y="180" width="530" height="200" as="geometry" />
        </mxCell>
        <mxCell id="2cSW-Dpe2s8EiaTepQzi-7" value="sede" style="whiteSpace=wrap;html=1;align=center;fillColor=#f0a30a;strokeColor=#BD7000;fontColor=#000000;" parent="1" vertex="1">
          <mxGeometry x="80" y="490" width="60" height="40" as="geometry" />
        </mxCell>
        <mxCell id="2cSW-Dpe2s8EiaTepQzi-8" value="" style="ellipse;whiteSpace=wrap;html=1;" parent="1" vertex="1">
          <mxGeometry x="779.13" y="1040" width="120" height="100" as="geometry" />
        </mxCell>
        <mxCell id="2cSW-Dpe2s8EiaTepQzi-10" value="" style="rounded=0;whiteSpace=wrap;html=1;rotation=-15;" parent="1" vertex="1">
          <mxGeometry x="770" y="1030" width="140" height="59.92" as="geometry" />
        </mxCell>
        <mxCell id="AJAiXvWyA1WgM-B7ojq_-1" value="" style="ellipse;whiteSpace=wrap;html=1;" vertex="1" parent="1">
          <mxGeometry x="559.1290421137558" y="1040.000212716931" width="120" height="100" as="geometry" />
        </mxCell>
        <mxCell id="AJAiXvWyA1WgM-B7ojq_-2" value="" style="rounded=0;whiteSpace=wrap;html=1;rotation=15;" vertex="1" parent="1">
          <mxGeometry x="549.9990421137559" y="1030.000212716931" width="140" height="59.92" as="geometry" />
        </mxCell>
        <mxCell id="AJAiXvWyA1WgM-B7ojq_-3" value="" style="endArrow=none;html=1;rounded=0;exitX=0.5;exitY=0;exitDx=0;exitDy=0;" edge="1" target="AJAiXvWyA1WgM-B7ojq_-4" parent="1" source="2cSW-Dpe2s8EiaTepQzi-7">
          <mxGeometry relative="1" as="geometry">
            <mxPoint x="55" y="415" as="sourcePoint" />
            <mxPoint x="115" y="415" as="targetPoint" />
          </mxGeometry>
        </mxCell>
        <mxCell id="AJAiXvWyA1WgM-B7ojq_-4" value="&lt;u&gt;ident&lt;/u&gt;" style="ellipse;whiteSpace=wrap;html=1;align=center;" vertex="1" parent="1">
          <mxGeometry x="85" y="400" width="50" height="30" as="geometry" />
        </mxCell>
        <mxCell id="AJAiXvWyA1WgM-B7ojq_-5" value="" style="endArrow=none;html=1;rounded=0;exitX=0.75;exitY=0;exitDx=0;exitDy=0;" edge="1" target="AJAiXvWyA1WgM-B7ojq_-6" parent="1" source="2cSW-Dpe2s8EiaTepQzi-7">
          <mxGeometry relative="1" as="geometry">
            <mxPoint x="160" y="415" as="sourcePoint" />
            <mxPoint x="220" y="415" as="targetPoint" />
          </mxGeometry>
        </mxCell>
        <mxCell id="AJAiXvWyA1WgM-B7ojq_-6" value="ciudad" style="ellipse;whiteSpace=wrap;html=1;align=center;" vertex="1" parent="1">
          <mxGeometry x="135" y="420" width="50" height="30" as="geometry" />
        </mxCell>
        <mxCell id="AJAiXvWyA1WgM-B7ojq_-7" value="" style="endArrow=none;html=1;rounded=0;exitX=0.25;exitY=0;exitDx=0;exitDy=0;" edge="1" target="AJAiXvWyA1WgM-B7ojq_-8" parent="1" source="2cSW-Dpe2s8EiaTepQzi-7">
          <mxGeometry relative="1" as="geometry">
            <mxPoint x="-5" y="435" as="sourcePoint" />
            <mxPoint x="55" y="435" as="targetPoint" />
          </mxGeometry>
        </mxCell>
        <mxCell id="AJAiXvWyA1WgM-B7ojq_-8" value="pais" style="ellipse;whiteSpace=wrap;html=1;align=center;" vertex="1" parent="1">
          <mxGeometry x="30" y="420" width="50" height="30" as="geometry" />
        </mxCell>
        <mxCell id="AJAiXvWyA1WgM-B7ojq_-9" value="" style="endArrow=none;html=1;rounded=0;exitX=0;exitY=0.25;exitDx=0;exitDy=0;" edge="1" target="AJAiXvWyA1WgM-B7ojq_-10" parent="1" source="2cSW-Dpe2s8EiaTepQzi-7">
          <mxGeometry relative="1" as="geometry">
            <mxPoint x="-20" y="475" as="sourcePoint" />
            <mxPoint x="40" y="475" as="targetPoint" />
          </mxGeometry>
        </mxCell>
        <mxCell id="AJAiXvWyA1WgM-B7ojq_-10" value="direccion" style="ellipse;whiteSpace=wrap;html=1;align=center;" vertex="1" parent="1">
          <mxGeometry y="460" width="50" height="30" as="geometry" />
        </mxCell>
        <mxCell id="AJAiXvWyA1WgM-B7ojq_-11" value="" style="endArrow=none;html=1;rounded=0;exitX=0;exitY=0.5;exitDx=0;exitDy=0;" edge="1" target="AJAiXvWyA1WgM-B7ojq_-12" parent="1" source="2cSW-Dpe2s8EiaTepQzi-7">
          <mxGeometry relative="1" as="geometry">
            <mxPoint x="-30" y="510" as="sourcePoint" />
            <mxPoint x="30" y="510" as="targetPoint" />
          </mxGeometry>
        </mxCell>
        <mxCell id="AJAiXvWyA1WgM-B7ojq_-12" value="telf" style="ellipse;whiteSpace=wrap;html=1;align=center;" vertex="1" parent="1">
          <mxGeometry x="-20" y="495" width="35" height="30" as="geometry" />
        </mxCell>
        <mxCell id="AJAiXvWyA1WgM-B7ojq_-13" value="" style="endArrow=none;html=1;rounded=0;exitX=0;exitY=0.75;exitDx=0;exitDy=0;" edge="1" target="AJAiXvWyA1WgM-B7ojq_-14" parent="1" source="2cSW-Dpe2s8EiaTepQzi-7">
          <mxGeometry relative="1" as="geometry">
            <mxPoint x="-20" y="545" as="sourcePoint" />
            <mxPoint x="40" y="545" as="targetPoint" />
          </mxGeometry>
        </mxCell>
        <mxCell id="AJAiXvWyA1WgM-B7ojq_-14" value="director" style="ellipse;whiteSpace=wrap;html=1;align=center;" vertex="1" parent="1">
          <mxGeometry y="530" width="50" height="30" as="geometry" />
        </mxCell>
        <mxCell id="AJAiXvWyA1WgM-B7ojq_-15" value="gestiona" style="shape=rhombus;perimeter=rhombusPerimeter;whiteSpace=wrap;html=1;align=center;fillColor=#76608a;fontColor=#ffffff;strokeColor=#432D57;" vertex="1" parent="1">
          <mxGeometry x="190" y="490" width="90" height="40" as="geometry" />
        </mxCell>
        <mxCell id="AJAiXvWyA1WgM-B7ojq_-16" value="" style="endArrow=none;html=1;rounded=0;exitX=0;exitY=0.5;exitDx=0;exitDy=0;entryX=1;entryY=0.5;entryDx=0;entryDy=0;" edge="1" source="AJAiXvWyA1WgM-B7ojq_-15" parent="1" target="2cSW-Dpe2s8EiaTepQzi-7">
          <mxGeometry relative="1" as="geometry">
            <mxPoint x="197" y="475" as="sourcePoint" />
            <mxPoint x="150" y="505" as="targetPoint" />
          </mxGeometry>
        </mxCell>
        <mxCell id="AJAiXvWyA1WgM-B7ojq_-17" value="(1,1)" style="resizable=0;html=1;whiteSpace=wrap;align=right;verticalAlign=bottom;" connectable="0" vertex="1" parent="AJAiXvWyA1WgM-B7ojq_-16">
          <mxGeometry x="1" relative="1" as="geometry">
            <mxPoint x="34" as="offset" />
          </mxGeometry>
        </mxCell>
        <mxCell id="AJAiXvWyA1WgM-B7ojq_-18" value="" style="endArrow=none;html=1;rounded=0;exitX=1;exitY=0.5;exitDx=0;exitDy=0;entryX=0;entryY=0.5;entryDx=0;entryDy=0;" edge="1" source="AJAiXvWyA1WgM-B7ojq_-15" parent="1" target="AJAiXvWyA1WgM-B7ojq_-20">
          <mxGeometry relative="1" as="geometry">
            <mxPoint x="197" y="475" as="sourcePoint" />
            <mxPoint x="370" y="505" as="targetPoint" />
          </mxGeometry>
        </mxCell>
        <mxCell id="AJAiXvWyA1WgM-B7ojq_-19" value="(1,N)" style="resizable=0;html=1;whiteSpace=wrap;align=right;verticalAlign=bottom;" connectable="0" vertex="1" parent="AJAiXvWyA1WgM-B7ojq_-18">
          <mxGeometry x="1" relative="1" as="geometry">
            <mxPoint as="offset" />
          </mxGeometry>
        </mxCell>
        <mxCell id="AJAiXvWyA1WgM-B7ojq_-20" value="proyecto" style="whiteSpace=wrap;html=1;align=center;fillColor=#f0a30a;strokeColor=#BD7000;fontColor=#000000;" vertex="1" parent="1">
          <mxGeometry x="330" y="490" width="100" height="40" as="geometry" />
        </mxCell>
        <mxCell id="AJAiXvWyA1WgM-B7ojq_-21" value="" style="endArrow=none;html=1;rounded=0;exitX=0.5;exitY=0;exitDx=0;exitDy=0;" edge="1" target="AJAiXvWyA1WgM-B7ojq_-22" parent="1" source="AJAiXvWyA1WgM-B7ojq_-20">
          <mxGeometry relative="1" as="geometry">
            <mxPoint x="320" y="435" as="sourcePoint" />
            <mxPoint x="380" y="435" as="targetPoint" />
          </mxGeometry>
        </mxCell>
        <mxCell id="AJAiXvWyA1WgM-B7ojq_-22" value="&lt;u&gt;codigo&lt;/u&gt;" style="ellipse;whiteSpace=wrap;html=1;align=center;" vertex="1" parent="1">
          <mxGeometry x="355" y="400" width="50" height="30" as="geometry" />
        </mxCell>
        <mxCell id="AJAiXvWyA1WgM-B7ojq_-23" value="" style="endArrow=none;html=1;rounded=0;exitX=0.25;exitY=0;exitDx=0;exitDy=0;" edge="1" target="AJAiXvWyA1WgM-B7ojq_-24" parent="1" source="AJAiXvWyA1WgM-B7ojq_-20">
          <mxGeometry relative="1" as="geometry">
            <mxPoint x="260" y="435" as="sourcePoint" />
            <mxPoint x="320" y="435" as="targetPoint" />
          </mxGeometry>
        </mxCell>
        <mxCell id="AJAiXvWyA1WgM-B7ojq_-24" value="titulo" style="ellipse;whiteSpace=wrap;html=1;align=center;" vertex="1" parent="1">
          <mxGeometry x="295" y="420" width="50" height="30" as="geometry" />
        </mxCell>
        <mxCell id="AJAiXvWyA1WgM-B7ojq_-25" value="" style="endArrow=none;html=1;rounded=0;exitX=0.75;exitY=0;exitDx=0;exitDy=0;" edge="1" target="AJAiXvWyA1WgM-B7ojq_-26" parent="1" source="AJAiXvWyA1WgM-B7ojq_-20">
          <mxGeometry relative="1" as="geometry">
            <mxPoint x="405" y="435" as="sourcePoint" />
            <mxPoint x="465" y="435" as="targetPoint" />
          </mxGeometry>
        </mxCell>
        <mxCell id="AJAiXvWyA1WgM-B7ojq_-26" value="fechaIni" style="ellipse;whiteSpace=wrap;html=1;align=center;" vertex="1" parent="1">
          <mxGeometry x="413" y="420" width="50" height="30" as="geometry" />
        </mxCell>
        <mxCell id="AJAiXvWyA1WgM-B7ojq_-27" value="" style="endArrow=none;html=1;rounded=0;exitX=1;exitY=0.25;exitDx=0;exitDy=0;" edge="1" target="AJAiXvWyA1WgM-B7ojq_-28" parent="1" source="AJAiXvWyA1WgM-B7ojq_-20">
          <mxGeometry relative="1" as="geometry">
            <mxPoint x="467" y="475" as="sourcePoint" />
            <mxPoint x="527" y="475" as="targetPoint" />
          </mxGeometry>
        </mxCell>
        <mxCell id="AJAiXvWyA1WgM-B7ojq_-28" value="fechaFin" style="ellipse;whiteSpace=wrap;html=1;align=center;" vertex="1" parent="1">
          <mxGeometry x="460" y="460" width="50" height="30" as="geometry" />
        </mxCell>
        <mxCell id="AJAiXvWyA1WgM-B7ojq_-29" value="" style="endArrow=none;html=1;rounded=0;" edge="1" target="AJAiXvWyA1WgM-B7ojq_-30" parent="1" source="AJAiXvWyA1WgM-B7ojq_-20">
          <mxGeometry x="545" y="495" width="50" height="30" as="geometry" />
        </mxCell>
        <mxCell id="AJAiXvWyA1WgM-B7ojq_-30" value="fechaFin" style="ellipse;whiteSpace=wrap;html=1;align=center;" vertex="1" parent="1">
          <mxGeometry x="510" y="495" width="50" height="30" as="geometry" />
        </mxCell>
        <mxCell id="AJAiXvWyA1WgM-B7ojq_-31" value="" style="endArrow=none;html=1;rounded=0;exitX=1;exitY=0.75;exitDx=0;exitDy=0;" edge="1" target="AJAiXvWyA1WgM-B7ojq_-32" parent="1" source="AJAiXvWyA1WgM-B7ojq_-20">
          <mxGeometry relative="1" as="geometry">
            <mxPoint x="443" y="555" as="sourcePoint" />
            <mxPoint x="503" y="555" as="targetPoint" />
          </mxGeometry>
        </mxCell>
        <mxCell id="AJAiXvWyA1WgM-B7ojq_-32" value="presupuesto" style="ellipse;whiteSpace=wrap;html=1;align=center;" vertex="1" parent="1">
          <mxGeometry x="460" y="525" width="50" height="30" as="geometry" />
        </mxCell>
        <mxCell id="AJAiXvWyA1WgM-B7ojq_-33" value="" style="endArrow=none;html=1;rounded=0;exitX=0.75;exitY=1;exitDx=0;exitDy=0;" edge="1" target="AJAiXvWyA1WgM-B7ojq_-34" parent="1" source="AJAiXvWyA1WgM-B7ojq_-20">
          <mxGeometry relative="1" as="geometry">
            <mxPoint x="378" y="575" as="sourcePoint" />
            <mxPoint x="438" y="575" as="targetPoint" />
          </mxGeometry>
        </mxCell>
        <mxCell id="AJAiXvWyA1WgM-B7ojq_-34" value="responsable" style="ellipse;whiteSpace=wrap;html=1;align=center;" vertex="1" parent="1">
          <mxGeometry x="413" y="560" width="77" height="30" as="geometry" />
        </mxCell>
        <mxCell id="AJAiXvWyA1WgM-B7ojq_-40" value="realiza" style="shape=rhombus;perimeter=rhombusPerimeter;whiteSpace=wrap;html=1;align=center;fillColor=#76608a;fontColor=#ffffff;strokeColor=#432D57;" vertex="1" parent="1">
          <mxGeometry x="348" y="585" width="65" height="40" as="geometry" />
        </mxCell>
        <mxCell id="AJAiXvWyA1WgM-B7ojq_-41" value="" style="endArrow=none;html=1;rounded=0;exitX=0.5;exitY=0;exitDx=0;exitDy=0;entryX=0.5;entryY=1;entryDx=0;entryDy=0;" edge="1" source="AJAiXvWyA1WgM-B7ojq_-40" parent="1" target="AJAiXvWyA1WgM-B7ojq_-20">
          <mxGeometry relative="1" as="geometry">
            <mxPoint x="307" y="620" as="sourcePoint" />
            <mxPoint x="260" y="650" as="targetPoint" />
          </mxGeometry>
        </mxCell>
        <mxCell id="AJAiXvWyA1WgM-B7ojq_-42" value="(1,N)" style="resizable=0;html=1;whiteSpace=wrap;align=right;verticalAlign=bottom;" connectable="0" vertex="1" parent="AJAiXvWyA1WgM-B7ojq_-41">
          <mxGeometry x="1" relative="1" as="geometry">
            <mxPoint x="33" y="25" as="offset" />
          </mxGeometry>
        </mxCell>
        <mxCell id="AJAiXvWyA1WgM-B7ojq_-43" value="" style="endArrow=none;html=1;rounded=0;exitX=0.5;exitY=1;exitDx=0;exitDy=0;entryX=0.5;entryY=0;entryDx=0;entryDy=0;" edge="1" source="AJAiXvWyA1WgM-B7ojq_-40" parent="1" target="AJAiXvWyA1WgM-B7ojq_-45">
          <mxGeometry relative="1" as="geometry">
            <mxPoint x="307" y="620" as="sourcePoint" />
            <mxPoint x="380" y="680" as="targetPoint" />
          </mxGeometry>
        </mxCell>
        <mxCell id="AJAiXvWyA1WgM-B7ojq_-44" value="(1,N)" style="resizable=0;html=1;whiteSpace=wrap;align=right;verticalAlign=bottom;" connectable="0" vertex="1" parent="AJAiXvWyA1WgM-B7ojq_-43">
          <mxGeometry x="1" relative="1" as="geometry">
            <mxPoint x="32" as="offset" />
          </mxGeometry>
        </mxCell>
        <mxCell id="AJAiXvWyA1WgM-B7ojq_-45" value="actuacion" style="whiteSpace=wrap;html=1;align=center;fillColor=#f0a30a;strokeColor=#BD7000;fontColor=#000000;" vertex="1" parent="1">
          <mxGeometry x="331" y="700" width="100" height="40" as="geometry" />
        </mxCell>
        <mxCell id="AJAiXvWyA1WgM-B7ojq_-46" value="en" style="shape=rhombus;perimeter=rhombusPerimeter;whiteSpace=wrap;html=1;align=center;fillColor=#76608a;fontColor=#ffffff;strokeColor=#432D57;" vertex="1" parent="1">
          <mxGeometry x="200" y="700" width="70" height="40" as="geometry" />
        </mxCell>
        <mxCell id="AJAiXvWyA1WgM-B7ojq_-47" value="" style="endArrow=none;html=1;rounded=0;exitX=0;exitY=0.5;exitDx=0;exitDy=0;entryX=1;entryY=0.5;entryDx=0;entryDy=0;" edge="1" source="AJAiXvWyA1WgM-B7ojq_-46" parent="1" target="AJAiXvWyA1WgM-B7ojq_-51">
          <mxGeometry relative="1" as="geometry">
            <mxPoint x="132" y="690" as="sourcePoint" />
            <mxPoint x="85" y="720" as="targetPoint" />
          </mxGeometry>
        </mxCell>
        <mxCell id="AJAiXvWyA1WgM-B7ojq_-48" value="(1,N)" style="resizable=0;html=1;whiteSpace=wrap;align=right;verticalAlign=bottom;" connectable="0" vertex="1" parent="AJAiXvWyA1WgM-B7ojq_-47">
          <mxGeometry x="1" relative="1" as="geometry">
            <mxPoint x="34" as="offset" />
          </mxGeometry>
        </mxCell>
        <mxCell id="AJAiXvWyA1WgM-B7ojq_-49" value="" style="endArrow=none;html=1;rounded=0;exitX=1;exitY=0.5;exitDx=0;exitDy=0;entryX=0;entryY=0.5;entryDx=0;entryDy=0;" edge="1" source="AJAiXvWyA1WgM-B7ojq_-46" parent="1" target="AJAiXvWyA1WgM-B7ojq_-45">
          <mxGeometry relative="1" as="geometry">
            <mxPoint x="132" y="690" as="sourcePoint" />
            <mxPoint x="305" y="720" as="targetPoint" />
          </mxGeometry>
        </mxCell>
        <mxCell id="AJAiXvWyA1WgM-B7ojq_-50" value="(1,N)" style="resizable=0;html=1;whiteSpace=wrap;align=right;verticalAlign=bottom;" connectable="0" vertex="1" parent="AJAiXvWyA1WgM-B7ojq_-49">
          <mxGeometry x="1" relative="1" as="geometry">
            <mxPoint as="offset" />
          </mxGeometry>
        </mxCell>
        <mxCell id="AJAiXvWyA1WgM-B7ojq_-51" value="poblacion" style="whiteSpace=wrap;html=1;align=center;fillColor=#f0a30a;strokeColor=#BD7000;fontColor=#000000;" vertex="1" parent="1">
          <mxGeometry x="40" y="700" width="100" height="40" as="geometry" />
        </mxCell>
        <mxCell id="AJAiXvWyA1WgM-B7ojq_-52" value="" style="endArrow=none;html=1;rounded=0;exitX=0.5;exitY=0;exitDx=0;exitDy=0;" edge="1" target="AJAiXvWyA1WgM-B7ojq_-53" parent="1" source="AJAiXvWyA1WgM-B7ojq_-51">
          <mxGeometry relative="1" as="geometry">
            <mxPoint x="40" y="640" as="sourcePoint" />
            <mxPoint x="100" y="640" as="targetPoint" />
          </mxGeometry>
        </mxCell>
        <mxCell id="AJAiXvWyA1WgM-B7ojq_-53" value="&lt;u&gt;ident&lt;/u&gt;" style="ellipse;whiteSpace=wrap;html=1;align=center;" vertex="1" parent="1">
          <mxGeometry x="65" y="625" width="50" height="30" as="geometry" />
        </mxCell>
        <mxCell id="AJAiXvWyA1WgM-B7ojq_-54" value="" style="endArrow=none;html=1;rounded=0;exitX=0.75;exitY=0;exitDx=0;exitDy=0;" edge="1" target="AJAiXvWyA1WgM-B7ojq_-55" parent="1" source="AJAiXvWyA1WgM-B7ojq_-51">
          <mxGeometry relative="1" as="geometry">
            <mxPoint x="135" y="640" as="sourcePoint" />
            <mxPoint x="195" y="640" as="targetPoint" />
          </mxGeometry>
        </mxCell>
        <mxCell id="AJAiXvWyA1WgM-B7ojq_-55" value="pais" style="ellipse;whiteSpace=wrap;html=1;align=center;" vertex="1" parent="1">
          <mxGeometry x="130" y="640" width="50" height="30" as="geometry" />
        </mxCell>
        <mxCell id="AJAiXvWyA1WgM-B7ojq_-56" value="" style="endArrow=none;html=1;rounded=0;exitX=0.25;exitY=0;exitDx=0;exitDy=0;" edge="1" target="AJAiXvWyA1WgM-B7ojq_-57" parent="1" source="AJAiXvWyA1WgM-B7ojq_-51">
          <mxGeometry relative="1" as="geometry">
            <mxPoint x="-35" y="655" as="sourcePoint" />
            <mxPoint x="25" y="655" as="targetPoint" />
          </mxGeometry>
        </mxCell>
        <mxCell id="AJAiXvWyA1WgM-B7ojq_-57" value="habitantes" style="ellipse;whiteSpace=wrap;html=1;align=center;" vertex="1" parent="1">
          <mxGeometry x="-5" y="640" width="60" height="30" as="geometry" />
        </mxCell>
        <mxCell id="AJAiXvWyA1WgM-B7ojq_-58" value="" style="endArrow=none;html=1;rounded=0;exitX=0;exitY=0.25;exitDx=0;exitDy=0;" edge="1" target="AJAiXvWyA1WgM-B7ojq_-59" parent="1" source="AJAiXvWyA1WgM-B7ojq_-51">
          <mxGeometry relative="1" as="geometry">
            <mxPoint x="-55" y="695" as="sourcePoint" />
            <mxPoint x="5" y="695" as="targetPoint" />
          </mxGeometry>
        </mxCell>
        <mxCell id="AJAiXvWyA1WgM-B7ojq_-59" value="nombre" style="ellipse;whiteSpace=wrap;html=1;align=center;" vertex="1" parent="1">
          <mxGeometry x="-40" y="680" width="50" height="30" as="geometry" />
        </mxCell>
        <mxCell id="AJAiXvWyA1WgM-B7ojq_-62" value="" style="endArrow=none;html=1;rounded=0;exitX=1;exitY=0.5;exitDx=0;exitDy=0;" edge="1" target="AJAiXvWyA1WgM-B7ojq_-63" parent="1" source="AJAiXvWyA1WgM-B7ojq_-45">
          <mxGeometry relative="1" as="geometry">
            <mxPoint x="460" y="720" as="sourcePoint" />
            <mxPoint x="520" y="720" as="targetPoint" />
          </mxGeometry>
        </mxCell>
        <mxCell id="AJAiXvWyA1WgM-B7ojq_-63" value="&lt;u&gt;nombre&lt;/u&gt;" style="ellipse;whiteSpace=wrap;html=1;align=center;" vertex="1" parent="1">
          <mxGeometry x="480" y="705" width="50" height="30" as="geometry" />
        </mxCell>
        <mxCell id="AJAiXvWyA1WgM-B7ojq_-64" value="" style="endArrow=none;html=1;rounded=0;exitX=1;exitY=0.25;exitDx=0;exitDy=0;" edge="1" target="AJAiXvWyA1WgM-B7ojq_-65" parent="1" source="AJAiXvWyA1WgM-B7ojq_-45">
          <mxGeometry relative="1" as="geometry">
            <mxPoint x="445" y="665" as="sourcePoint" />
            <mxPoint x="505" y="665" as="targetPoint" />
          </mxGeometry>
        </mxCell>
        <mxCell id="AJAiXvWyA1WgM-B7ojq_-65" value="descrip" style="ellipse;whiteSpace=wrap;html=1;align=center;" vertex="1" parent="1">
          <mxGeometry x="480" y="650" width="50" height="30" as="geometry" />
        </mxCell>
        <mxCell id="AJAiXvWyA1WgM-B7ojq_-66" value="" style="endArrow=none;html=1;rounded=0;exitX=1;exitY=0.75;exitDx=0;exitDy=0;" edge="1" target="AJAiXvWyA1WgM-B7ojq_-67" parent="1" source="AJAiXvWyA1WgM-B7ojq_-45">
          <mxGeometry relative="1" as="geometry">
            <mxPoint x="431" y="765" as="sourcePoint" />
            <mxPoint x="491" y="765" as="targetPoint" />
          </mxGeometry>
        </mxCell>
        <mxCell id="AJAiXvWyA1WgM-B7ojq_-67" value="inversion" style="ellipse;whiteSpace=wrap;html=1;align=center;" vertex="1" parent="1">
          <mxGeometry x="480" y="750" width="50" height="30" as="geometry" />
        </mxCell>
      </root>
    </mxGraphModel>
  </diagram>
</mxfile>
